<!DOCTYPE svg PUBLIC "-//W3C//DTD SVG 1.1//EN" "http://www.w3.org/Graphics/SVG/1.1/DTD/svg11.dtd">
<!-- Uploaded to: SVG Repo, www.svgrepo.com, Transformed by: SVG Repo Mixer Tools -->
<svg width="800px" height="800px" viewBox="-2.4 -2.4 28.80 28.80" fill="none" xmlns="http://www.w3.org/2000/svg" stroke="#ffffff">
<g id="SVGRepo_bgCarrier" stroke-width="0">
<path transform="translate(-2.4, -2.4), scale(0.8999999999999999)" d="M16,31.86728477791736C19.14657602925159,31.92478049454076,18.930389340479543,26.33571077933437,21.345939791987398,24.31844468843041C23.290713209451596,22.694332276663975,27.404368392439338,23.98599347800452,28.283069978483553,21.609490102451993C29.18883702661,19.15978649257546,25.788414388745736,17.175215593591528,24.894491325757187,14.721165211229545C24.245055366914315,12.938295265140695,24.879210360825265,10.80475489232017,23.783099635580395,9.25590577529547C22.64793901825175,7.651877569625001,20.504158628017247,7.310121338538603,18.873603467787312,6.213405340128851C16.36309712927155,4.52483169802584,14.641481260404992,1.1542943617879962,11.61702927973326,1.0729725495623228C8.63689891615942,0.9928424620676758,6.212866258734806,3.5747266699945137,4.251949898881408,5.820256639617707C2.2860867778953122,8.071451358948465,0.9001278800489863,10.809936933496594,0.5249248843082146,13.77502010042177C0.15335991786043507,16.711353338535385,0.08127173694036127,20.21588017429413,2.164244716146122,22.31857772207432C4.271627839357443,24.445916564030597,8.313668268351991,22.424484844834424,10.778157710332884,24.125345205609662C13.393018785700983,25.929984120375277,12.823390031666083,31.809240267038074,16,31.86728477791736" fill="#04bdfb" strokewidth="0"/>
</g>
<g id="SVGRepo_tracerCarrier" stroke-linecap="round" stroke-linejoin="round"/>
<g id="SVGRepo_iconCarrier"> <path d="M12 10L16 14" stroke="#4d4c4c" stroke-width="2" stroke-linecap="round" stroke-linejoin="round"/> <path d="M16 10L12 14" stroke="#4d4c4c" stroke-width="2" stroke-linecap="round" stroke-linejoin="round"/> <path d="M21 9.648C21 5.82037 20.1796 5 16.352 5H10.7515C10.267 5 9.79904 5.17584 9.43446 5.49485L3.72017 10.4948C2.80952 11.2917 2.80952 12.7083 3.72018 13.5052L9.43446 18.5052C9.79904 18.8242 10.267 19 10.7515 19H16.352C20.1796 19 21 18.1796 21 14.352V9.648Z" stroke="#4d4c4c" stroke-width="2" stroke-linejoin="round"/> </g>
</svg>