<!DOCTYPE svg PUBLIC "-//W3C//DTD SVG 1.1//EN" "http://www.w3.org/Graphics/SVG/1.1/DTD/svg11.dtd">
<!-- Uploaded to: SVG Repo, www.svgrepo.com, Transformed by: SVG Repo Mixer Tools -->
<svg fill="#000000" height="800px" width="800px" version="1.1" id="Layer_1" xmlns="http://www.w3.org/2000/svg" xmlns:xlink="http://www.w3.org/1999/xlink" viewBox="-51.2 -51.2 614.40 614.40" xml:space="preserve">
<g id="SVGRepo_bgCarrier" stroke-width="0">
<path transform="translate(-51.2, -51.2), scale(19.2)" d="M16,29.062099408946537C18.64510514967565,29.53225232371185,21.590909872150867,29.668846736577386,23.85104383064744,28.216462660048876C26.11119645995952,26.764066585472627,27.35521206521319,24.060826942489005,27.882257435280735,21.426445147243456C28.353989572852747,19.068540826230794,27.522566465259867,16.696569310144305,26.600028705993836,14.475945956354463C25.842863659431767,12.653388160555624,24.220343306292833,11.47602224602401,23.079426872575706,9.865641695335242C21.776936726203594,8.02720310579919,21.244462880768985,5.66988471439141,19.422297925189874,4.344723628503688C17.19487781847827,2.7248425972608232,14.53091232910836,1.410144184645135,11.787536323268103,1.6536662118696714C8.848021337365283,1.9145989629399003,6.12626120289489,3.5419087075208746,4.1170119493087025,5.703332240725711C2.070173045225817,7.905192347463421,0.05385305301288901,10.804452487378793,0.5202120750345447,13.774342500744478C0.9874761640329743,16.749996205276897,4.577306422180821,17.99258940690399,6.420836287092611,20.374657486397805C7.731605714704158,22.068333337555902,8.17230363594009,24.272895664305302,9.758715246860035,25.71162864227432C11.543949278507826,27.33067571495354,13.627134790651393,28.640335648569277,16,29.062099408946537" fill="#ec7ecf" strokewidth="0"/>
</g>
<g id="SVGRepo_tracerCarrier" stroke-linecap="round" stroke-linejoin="round"/>
<g id="SVGRepo_iconCarrier"> <g> <g> <path d="M410.069,140.045c-29.858-29.859-66.538-49.94-107.017-58.762l8.108-8.107c8.099-8.099,12.559-18.866,12.559-30.319 s-4.46-22.221-12.559-30.319c-16.718-16.717-43.921-16.717-60.639,0L171.219,91.84c-8.099,8.099-12.559,18.866-12.559,30.319 c0,11.453,4.46,22.221,12.559,30.319l79.302,79.302c8.1,8.099,18.866,12.559,30.319,12.559c11.453,0,22.221-4.46,30.319-12.559 c15.205-15.206,16.581-39.084,4.127-55.858c43.799,21.835,72.845,66.85,72.845,118.191c0,72.857-59.274,132.131-132.131,132.131 c-72.857,0-132.131-59.273-132.131-132.131c0-23.643-19.234-42.877-42.878-42.877c-23.644,0-42.878,19.234-42.878,42.877 c0,58.2,22.664,112.916,63.817,154.068c41.153,41.153,95.869,63.818,154.069,63.818s112.916-22.665,154.069-63.816 c41.153-41.153,63.818-95.869,63.818-154.069C473.886,235.914,451.223,181.199,410.069,140.045z M395.642,433.758 c-37.3,37.3-86.892,57.842-139.644,57.842c-52.751,0-102.345-20.542-139.645-57.843c-37.3-37.3-57.842-86.893-57.842-139.644 c0-12.395,10.084-22.478,22.479-22.478s22.479,10.083,22.478,22.479c0,84.105,68.424,152.53,152.53,152.53 s152.53-68.425,152.53-152.53c0-36.313-13.029-71.514-36.685-99.12c-23.391-27.296-55.67-45.535-90.892-51.358 c-4.368-0.721-8.71,1.46-10.735,5.402c-2.026,3.941-1.274,8.74,1.859,11.873l24.656,24.656c8.764,8.765,8.764,23.026,0,31.789 c-4.245,4.246-9.89,6.584-15.894,6.584c-6.004,0-11.649-2.338-15.894-6.584l-79.303-79.302c-4.246-4.245-6.584-9.89-6.584-15.894 c0-6.003,2.339-11.648,6.585-15.894l79.302-79.302c8.765-8.765,23.026-8.765,31.789,0c4.246,4.245,6.584,9.89,6.584,15.894 c0,6.003-2.338,11.649-6.584,15.894l-22.054,22.054c-2.756,2.756-3.7,6.843-2.433,10.529s4.526,6.327,8.394,6.805 c43.797,5.413,83.565,24.891,115.003,56.329c37.3,37.3,57.842,86.892,57.842,139.644S432.943,396.458,395.642,433.758z"/> </g> </g> <g> <g> <path d="M254.033,167.728l-1.57-1.57c-3.984-3.983-10.442-3.983-14.425,0c-3.983,3.984-3.983,10.442,0,14.425l1.57,1.57 c1.991,1.992,4.602,2.987,7.212,2.987c2.61,0,5.221-0.995,7.213-2.987C258.016,178.169,258.016,171.711,254.033,167.728z"/> </g> </g> <g> <g> <path d="M230.41,144.171l-25.948-25.949c-3.983-3.983-10.441-3.982-14.424,0c-3.983,3.983-3.983,10.441,0,14.424l25.948,25.949 c1.992,1.992,4.601,2.987,7.212,2.987c2.61,0,5.221-0.997,7.212-2.987C234.393,154.612,234.393,148.154,230.41,144.171z"/> </g> </g> </g>
</svg>